<svg viewBox="0 0 640 512" xmlns="http://www.w3.org/2000/svg"><path d="M624 280c8.875 0 16-7.125 16-16v-16c0-8.875-7.125-16-16-16H344v-40h72c17.62 0 32-14.38 32-32V32c0-17.62-14.38-32-32-32H224c-17.6 0-32 14.38-32 32v128c0 17.62 14.38 32 32 32h72v40H16c-8.875 0-16 7.1-16 16v16c0 8.875 7.125 16 16 16h88v40H32c-17.62 0-32 14.38-32 32v128c0 17.62 14.38 32 32 32h192c17.62 0 32-14.38 32-32V352c0-17.62-14.38-32-32-32h-72v-40h336v40h-72c-17.62 0-32 14.38-32 32v128c0 17.62 14.38 32 32 32h192c17.62 0 32-14.38 32-32V352c0-17.62-14.38-32-32-32h-72v-40h88zM192 384v64H64v-64h128zm64-256V64h128v64H256zm320 256v64H448v-64h128z" fill="#ffffff" class="fill-000000"></path></svg>